<svg xmlns="http://www.w3.org/2000/svg" width="145" height="145" viewBox="0 0 145 145"><g transform="translate(-1343.482 -3178.318)"><rect width="145" height="145" transform="translate(1343.482 3178.318)" fill="none"/><path d="M1415.982,3257.415v58.845l-45.253-23.666v-38.823" fill="none" stroke="#182556" stroke-linecap="round" stroke-linejoin="round" stroke-width="5"/><path d="M1415.982,3257.415v58.845l45.254-23.666v-38.97" fill="none" stroke="#182556" stroke-linecap="round" stroke-linejoin="round" stroke-width="5"/><path d="M1461.236,3236.267l-45.254,21.148-45.253-21.148,45.253-21.148Z" fill="none" stroke="#182556" stroke-linecap="round" stroke-linejoin="round" stroke-width="5"/><path d="M1415.982,3215.119l11.126-11.126,45.253,21.147-11.126,11.126Z" fill="none" stroke="#182556" stroke-linecap="round" stroke-linejoin="round" stroke-width="5"/><path d="M1415.982,3215.119l-11.126-11.126-45.253,21.147,11.126,11.126Z" fill="none" stroke="#182556" stroke-linecap="round" stroke-linejoin="round" stroke-width="5"/><path d="M1415.982,3257.415l11.913,11.913,44.466-20.748-11.126-12.313Z" fill="none" stroke="#182556" stroke-linecap="round" stroke-linejoin="round" stroke-width="5"/><path d="M1415.982,3257.415l-11.913,11.913L1359.6,3248.58l11.126-12.313Z" fill="none" stroke="#182556" stroke-linecap="round" stroke-linejoin="round" stroke-width="5"/><path d="M1432.181,3223.979l-16.2,16.2-16.2-16.2" fill="none" stroke="#e82b34" stroke-linecap="round" stroke-linejoin="round" stroke-width="5"/><line y2="54.802" transform="translate(1415.982 3185.377)" fill="none" stroke="#e82b34" stroke-linecap="round" stroke-linejoin="round" stroke-width="5"/></g></svg>