<svg xmlns="http://www.w3.org/2000/svg" width="145" height="145" viewBox="0 0 145 145"><g transform="translate(-1345.264 -2836.925)"><rect width="145" height="145" transform="translate(1345.264 2836.925)" fill="none"/><path d="M1424.479,2849.557h-10.96a7.958,7.958,0,0,0-15.915,0h-10.96a3.238,3.238,0,0,0-3.228,3.228v14.263a3.237,3.237,0,0,0,3.228,3.228h37.835a3.237,3.237,0,0,0,3.228-3.228v-14.263A3.238,3.238,0,0,0,1424.479,2849.557Z" fill="none" stroke="#182556" stroke-linecap="round" stroke-linejoin="round" stroke-width="5"/><path d="M1453.643,2887.684v-25.065a5.646,5.646,0,0,0-5.63-5.63h-8.958" fill="none" stroke="#182556" stroke-linecap="round" stroke-linejoin="round" stroke-width="5"/><path d="M1372.068,2856.989h-8.958a5.647,5.647,0,0,0-5.63,5.63v109a5.647,5.647,0,0,0,5.63,5.63h84.9a5.646,5.646,0,0,0,5.63-5.63v-48.257" fill="none" stroke="#182556" stroke-linecap="round" stroke-linejoin="round" stroke-width="5"/><rect width="13.362" height="13.362" transform="translate(1376.297 2886.942)" fill="none" stroke="#182556" stroke-linecap="round" stroke-linejoin="round" stroke-width="5"/><rect width="13.362" height="13.362" transform="translate(1376.297 2914.867)" fill="none" stroke="#182556" stroke-linecap="round" stroke-linejoin="round" stroke-width="5"/><rect width="13.362" height="13.362" transform="translate(1376.297 2942.793)" fill="none" stroke="#182556" stroke-linecap="round" stroke-linejoin="round" stroke-width="5"/><line x2="30.778" transform="translate(1403.622 2886.942)" fill="none" stroke="#182556" stroke-linecap="round" stroke-linejoin="round" stroke-width="5"/><line x2="22.22" transform="translate(1403.622 2900.304)" fill="none" stroke="#182556" stroke-linecap="round" stroke-linejoin="round" stroke-width="5"/><line x2="12.762" transform="translate(1403.622 2921.548)" fill="none" stroke="#182556" stroke-linecap="round" stroke-linejoin="round" stroke-width="5"/><path d="M1461.491,2888.656l-48.313,48.313-5.142,14.161,14.161-5.142,51.682-51.682-9.019-9.019,4.169-4.169,9.019,9.019" fill="none" stroke="#e82b34" stroke-linecap="round" stroke-linejoin="round" stroke-width="5"/></g></svg>