<?xml version="1.0" standalone="no"?>
<!DOCTYPE svg PUBLIC "-//W3C//DTD SVG 20010904//EN"
 "http://www.w3.org/TR/2001/REC-SVG-20010904/DTD/svg10.dtd">
<svg version="1.0" xmlns="http://www.w3.org/2000/svg"
 width="400.000000pt" height="400.000000pt" viewBox="0 0 400.000000 400.000000"
 preserveAspectRatio="xMidYMid meet">
<metadata>
Created by potrace 1.14, written by Peter Selinger 2001-2017
</metadata>
<g transform="translate(0.000000,400.000000) scale(0.100000,-0.100000)"
fill="#000000" stroke="none">
<path d="M3369 2461 c-30 -31 -35 -53 -20 -94 26 -67 149 -68 177 -2 17 42 11
75 -21 103 -39 33 -98 30 -136 -7z"/>
<path d="M5 2400 c-7 -11 -3 -120 4 -121 3 -1 132 -2 287 -3 l280 -1 0 65 -1
65 -283 1 c-156 0 -285 -3 -287 -6z"/>
<path d="M690 2387 c-5 -188 -2 -666 4 -675 5 -8 32 -11 79 -10 l72 3 3 98 3
97 67 0 c37 0 72 -4 78 -8 6 -4 34 -41 63 -82 28 -41 57 -82 64 -91 10 -13 31
-17 100 -17 61 1 85 4 80 12 -18 29 -118 173 -132 190 -15 17 -15 19 3 30 11
6 36 27 57 48 107 106 79 316 -52 384 -67 34 -115 41 -302 42 -185 0 -187 0
-187 -21z m378 -131 c89 -46 79 -186 -16 -214 -22 -7 -76 -12 -121 -12 l-81 0
0 118 c0 65 2 121 4 123 11 11 187 -1 214 -15z"/>
<path d="M214 2241 c-165 -40 -253 -227 -181 -385 51 -111 138 -159 287 -159
94 0 138 14 193 59 l28 24 -45 47 c-41 44 -46 46 -63 33 -43 -35 -65 -39 -170
-32 -26 2 -93 63 -93 85 0 13 27 15 200 13 125 0 201 3 203 9 9 25 -4 119 -21
158 -54 121 -193 182 -338 148z m152 -130 c16 -10 38 -34 47 -52 l16 -34 -121
-3 c-67 -1 -128 0 -134 2 -10 4 -10 12 2 35 32 65 126 91 190 52z"/>
<path d="M1572 2236 c-53 -18 -89 -41 -124 -80 -50 -56 -63 -94 -63 -187 0
-78 3 -90 30 -134 36 -59 100 -110 158 -126 57 -16 155 -18 210 -4 46 12 127
58 127 73 0 4 -18 27 -40 51 l-40 43 -36 -23 c-48 -29 -135 -33 -184 -9 -29
15 -70 64 -70 83 0 3 82 5 183 5 100 0 192 1 205 1 19 1 22 6 22 44 0 23 -5
60 -11 82 -12 47 -69 135 -86 135 -7 0 -13 3 -13 8 0 4 -19 16 -42 26 -55 24
-170 30 -226 12z m159 -121 c27 -14 69 -68 69 -87 0 -5 -58 -8 -130 -8 -92 0
-130 3 -130 12 0 18 50 79 74 88 33 14 84 11 117 -5z"/>
<path d="M2285 2238 c-16 -6 -43 -20 -59 -31 l-29 -20 5 26 5 27 -78 0 -79 0
0 -365 0 -365 80 0 80 0 0 121 0 120 28 -19 c67 -47 169 -50 256 -8 54 26 88
61 120 125 18 35 26 146 14 208 -7 38 -68 133 -85 133 -7 0 -13 4 -13 9 0 5
-25 19 -55 30 -60 23 -141 26 -190 9z m111 -130 c47 -17 81 -76 79 -135 -3
-64 -17 -96 -56 -124 -23 -16 -46 -23 -77 -22 -77 1 -119 40 -129 122 -8 67
11 116 55 146 40 27 78 31 128 13z"/>
<path d="M2823 2231 c-29 -10 -54 -17 -56 -15 -1 1 -12 -5 -25 -14 l-22 -17
26 -53 c20 -41 30 -52 43 -46 147 63 260 40 261 -53 0 -10 -26 -13 -95 -13
-159 0 -239 -44 -252 -140 -7 -51 1 -82 33 -120 38 -45 76 -61 152 -64 68 -3
121 12 149 40 20 20 30 17 29 -8 -1 -22 3 -23 72 -24 l72 -1 0 188 c0 162 -3
193 -19 232 -23 53 -73 96 -133 114 -62 18 -173 16 -235 -6z m230 -320 c7 -30
-19 -79 -53 -96 -36 -19 -105 -14 -128 9 -21 21 -18 63 7 83 16 13 42 19 96
20 63 1 74 -1 78 -16z"/>
<path d="M3896 2234 c-22 -8 -47 -20 -55 -28 -33 -28 -39 -27 -34 4 l4 31 -77
-3 -77 -3 1 -250 c0 -137 1 -258 1 -267 1 -14 12 -16 78 -15 l78 2 2 150 c1
83 3 156 4 164 5 30 67 78 108 85 23 3 46 4 52 1 9 -6 10 1 12 88 1 51 1 52
-28 54 -17 1 -48 -5 -69 -13z"/>
<path d="M3360 1970 l0 -269 78 2 77 2 1 268 1 267 -78 0 -79 0 0 -270z"/>
</g>
</svg>
